<svg width="219" height="40" viewBox="0 0 219 40" xmlns="http://www.w3.org/2000/svg">
  <title>Logo</title>
  <g id="Header" fill="none" fill-rule="evenodd">
    <g id="Logo">
      <g id="Typography" transform="translate(44.992 6.153)" fill="#231916">
        <g id="Group">
          <path d="M78.87 4.133s.896-.398 1.12-1.366h1.986V4.43h-3.205l.1-.298z" id="Fill-8"></path>
          <path d="M85.111 9.461s.894-.398 1.118-1.367h1.988v1.665h-3.205l.099-.298z" id="Fill-10"></path>
          <path d="M81.356 14.175s.894-.399 1.118-1.367h1.988v1.665h-3.206l.1-.298z" id="Fill-12"></path>
          <path id="Fill-14" d="M68.11 4.737h13.86v-.622H68.11z"></path>
          <path id="Fill-16" d="M65.343 10.049h22.882v-.622H65.343z"></path>
          <path id="Fill-17" d="M72.756 14.786h10.788v-.67H72.756z"></path>
          <path id="Fill-18" d="M71.573 19.474h12.059v-.622H71.573z"></path>
          <path id="Fill-19" d="M71.573 23.742h12.059v-.623H71.573z"></path>
          <path id="Fill-20" d="M70.596 26.31h1.944V15.205h-1.944z"></path>
          <path id="Fill-21" d="M82.47 26.354h2.001v-12.1H82.47z"></path>
          <path id="Fill-22" d="M74.429 10.026h2.03V.462h-2.03z"></path>
          <path d="M84.218 2.013s-5.225 10.372-20.704 16.54l.198.55s15.083-4.282 22.352-15.95l-1.846-1.14z" id="Fill-23"></path>
          <path d="M54.651 4.254s.894-.397 1.118-1.366h1.988v1.665H54.55l.1-.299z" id="Fill-36"></path>
          <path d="M53.956 19.659s.894-.399 1.119-1.367h1.987v1.664h-3.206l.1-.297z" id="Fill-37"></path>
          <path id="Fill-38" d="M41.501 4.885h16.245v-.621H41.5z"></path>
          <path id="Fill-39" d="M43.26 7.14h12.142v-.67H43.261z"></path>
          <path id="Fill-40" d="M43.29 9.48h12.142v-.623H43.29z"></path>
          <path id="Fill-41" d="M43.26 11.688h12.142v-.623H43.261z"></path>
          <path id="Fill-42" d="M43.26 13.955h12.142v-.622H43.261z"></path>
          <path id="Fill-43" d="M32.514 9.76h6.204v-.623h-6.204z"></path>
          <path id="Fill-44" d="M37.02 14.497h2.032v-5.4h-2.033z"></path>
          <path d="M55.291 4.26s.707-.314.884-1.08h1.57v1.316h-2.533l.08-.236z" id="Fill-45"></path>
          <path d="M36.596 9.114s.707-.315.884-1.08h1.57v1.315h-2.533l.08-.235z" id="Fill-46"></path>
          <path id="Fill-47" d="M34.056 20.166h23.006v-.623H34.056z"></path>
          <path d="M54.586 19.54s.707-.313.884-1.08h1.571v1.317h-2.534l.079-.237z" id="Fill-48"></path>
          <path d="M53.419 6.509s.74-.33.926-1.131h1.645v1.378h-2.654l.083-.247z" id="Fill-49"></path>
          <path d="M36.993 9.132s.592-.264.741-.907h1.318V9.33h-2.126l.067-.198z" id="Fill-50"></path>
          <path d="M34.468 2.292l.324-.5s2.946.707 4.272 3.27l-1.532 1.09s-1.68-3.182-3.064-3.86" id="Fill-51"></path>
          <path d="M43.748.566l.283-.345s1.944.22 3.324 2.29l-1.693.909s-.627-1.881-1.914-2.854" id="Fill-52"></path>
          <path d="M51.118.827s-.933 3.087-1.287 3.665h.546s1.866-1.929 3.12-3.601l-2.38-.064z" id="Fill-53"></path>
          <path id="Fill-54" d="M33.172 15.703l4.006-1.827.295.502-3.005 3.535z"></path>
          <path d="M38.946 13.35s.933 2.288 6.668 2.426c0 0 7.494.393 11.275-.276v1.62s-15.91 1.768-18.208-3.24l.265-.53z"
            id="Fill-55"></path>
          <path id="Fill-56" d="M42.381 14.744h1.974V5.601H42.38z"></path>
          <path id="Fill-57" d="M53.983 14.777h2.002V6.502h-2.002z"></path>
          <path d="M40.85 21.842l.324-.324s2.299.53 3.653 2.534l-1.53 1.325s-1.829-3.33-2.447-3.535" id="Fill-58"></path>
          <path d="M49.724 18.02h2v6.634c0 .656-.158 1.291-.694 1.684-.301.222-.905.523-1.293.41-.509-.147-.414-.796-.687-1.135-.288-.357-.976-.444-1.405-.444l.016-.418h1.226s.861.129.861-.71c0-.837-.024-6.02-.024-6.02"
            id="Fill-59"></path>
          <path id="Fill-84" d="M1.036 5.7H13.57v-.616H1.036z"></path>
          <path id="Fill-85" d="M15.584 3.257h7.643V2.64h-7.643z"></path>
          <path id="Fill-86" d="M16.051 13.484h8.85v-.569h-8.85z"></path>
          <path id="Fill-87" d="M5.8 10.057h2.014V.93H5.8z"></path>
          <path id="Fill-88" d="M14.834 26.396h1.87V1.209h-1.87z"></path>
          <path id="Fill-89" d="M5.8 26.545h2.014V14.78H5.8z"></path>
          <path d="M10.5 5.078s.885-.394 1.106-1.353h1.968v1.648h-3.173l.098-.295z" id="Fill-90"></path>
          <path d="M10.5 19.223s.885-.394 1.106-1.354h1.968v1.65h-3.173l.098-.296z" id="Fill-91"></path>
          <path d="M21.222 2.705s.886-.394 1.108-1.353h1.968V3h-3.175l.1-.295z" id="Fill-92"></path>
          <path d="M10.594 14.445s.886-.394 1.107-1.354h1.968v1.65h-3.173l.098-.296z" id="Fill-93"></path>
          <path d="M10.554 9.683s.885-.394 1.107-1.353h1.967v1.647h-3.173l.099-.294z" id="Fill-94"></path>
          <path id="Fill-95" d="M.04 10.308h13.586V9.69H.039z"></path>
          <path id="Fill-96" d="M.116 15.04h13.542v-.616H.116z"></path>
          <path d="M11.224 14.394s.7-.313.874-1.07h1.556v1.302h-2.509l.079-.232z" id="Fill-97"></path>
          <path id="Fill-98" d="M1.044 19.724h12.533v-.617H1.044z"></path>
          <path d="M2.913 10.994l.428-.252s1.614 1.633 2.333 3.111l-1.575.681s-.796-3.13-1.186-3.54" id="Fill-99"></path>
          <path d="M8.904 10.546l2.392.955S9.06 13.893 8.32 14.475l-.311-.194s.622-1.907.895-3.735" id="Fill-100"></path>
          <path d="M22.344 2.637V9.458s.105.908-.663.908h-.802v.452s1.15.071 1.15.734c0 .662 2.269 1.15 2.269-2.094v-6.89l-1.954.07z"
            id="Fill-101"></path>
          <path d="M22.887 12.893s-.682 8.08-5.643 13.7l.208.341s6.451-5.566 7.497-13.865l-2.062-.176z" id="Fill-102"></path>
          <path d="M17.868 14.242s1.4 7.43 8.285 10.493l-1.575 2.013s-5.864-2.88-7.148-12.42l.438-.086z" id="Fill-103"></path>
        </g>
        <g id="Group" transform="translate(96.137 3.076)">
          <path id="Fill-305" d="M2.185 7.168h1.01V.969H1.31v1.249H.323V.038h6.88v2.18h-.988V.969H4.33v6.199h1.01v.885H2.185z"></path>
          <path id="Fill-306" d="M10.402 7.168h.999V.913h-1V.038h3.145v.875h-1.01V3.58h4.155V.913h-1.01V.038h3.144v.875h-1v6.255h1v.885H15.68v-.885h1.01V4.51h-4.156v2.657h1.011v.885h-3.144z"></path>
          <path id="Fill-307" d="M22.296 7.168h1V.913h-1V.038h5.8V1.9h-.986V.97h-2.68v2.576h2.838v.93H24.43v2.647h2.872v-.966h.988v1.896h-5.994z"></path>
          <path d="M4.02 17.73c.874 0 1.453-.567 1.453-1.51 0-.623-.25-1.055-.749-1.259-.261-.102-.602-.148-.988-.148H2.408v2.917H4.02zM.274 21.012h1v-6.256h-1v-.874h3.474c.567 0 1.033.023 1.475.17.84.285 1.396.989 1.396 2.078 0 1.158-.635 1.986-1.657 2.248v.022s.204.114.34.375l1.136 1.975c.125.217.273.262.556.262h.239v.885h-.681c-.681 0-.84-.124-1.113-.602l-1.237-2.19c-.205-.341-.352-.443-.84-.443h-.954v2.35h.988v.885H.274v-.885z"
            id="Fill-308"></path>
          <path id="Fill-309" d="M10.455 21.012h.999v-6.255h-1v-.875h5.801v1.862h-.987v-.93h-2.68v2.576h2.839v.93h-2.838v2.647h2.872V20h.988v1.896h-5.994z"></path>
          <path d="M23.519 17.958c.363 0 .647-.058.897-.159.51-.227.806-.738.806-1.43 0-.648-.262-1.124-.716-1.362-.249-.137-.59-.194-.975-.194h-1.5v3.145h1.488zm-3.622 3.053h1v-6.254h-1v-.875h3.736c.488 0 .976.035 1.373.216.829.352 1.362 1.204 1.362 2.27 0 1.124-.59 2.032-1.51 2.35-.374.137-.76.17-1.203.17h-1.623v2.123h1.01v.886h-3.145v-.886z"
            id="Fill-310"></path>
          <path d="M33.643 21.022c1.623 0 2.94-1.384 2.94-3.19 0-1.748-1.317-3.087-2.94-3.087-1.635 0-2.952 1.34-2.952 3.088 0 1.805 1.317 3.19 2.952 3.19m0-7.277c2.316 0 4.12 1.782 4.12 4.087 0 2.361-1.804 4.2-4.12 4.2-2.327 0-4.121-1.839-4.121-4.2 0-2.305 1.794-4.087 4.12-4.087"
            id="Fill-311"></path>
          <path d="M44.845 17.73c.874 0 1.453-.567 1.453-1.51 0-.623-.25-1.055-.749-1.259-.261-.102-.602-.148-.988-.148h-1.328v2.917h1.612zm-3.746 3.282h.999v-6.256h-.999v-.874h3.474c.567 0 1.032.023 1.475.17.84.285 1.397.989 1.397 2.078 0 1.158-.636 1.986-1.658 2.248v.022s.204.114.34.375l1.136 1.975c.125.217.273.262.556.262h.238v.885h-.68c-.682 0-.841-.124-1.113-.602l-1.237-2.19c-.205-.341-.352-.443-.84-.443h-.954v2.35h.987v.885H41.1v-.885z"
            id="Fill-312"></path>
          <path id="Fill-313" d="M52.823 21.012h1.01v-6.199H51.95v1.249h-.987v-2.18h6.879v2.18h-.988v-1.249H54.97v6.199h1.01v.885h-3.156z"></path>
          <path id="Fill-314" d="M61.04 21.012h1v-6.255h-1v-.875h5.801v1.862h-.988v-.93h-2.679v2.576h2.838v.93h-2.838v2.647h2.873V20h.987v1.896H61.04z"></path>
          <path d="M74.229 17.73c.874 0 1.453-.567 1.453-1.51 0-.623-.25-1.055-.75-1.259-.26-.102-.6-.148-.987-.148h-1.328v2.917h1.612zm-3.746 3.282h.999v-6.256h-.999v-.874h3.473c.568 0 1.033.023 1.476.17.84.285 1.397.989 1.397 2.078 0 1.158-.636 1.986-1.658 2.248v.022s.204.114.34.375l1.136 1.975c.125.217.272.262.556.262h.238v.885h-.68c-.682 0-.841-.124-1.113-.602l-1.237-2.19c-.205-.341-.352-.443-.84-.443h-.954v2.35h.988v.885h-3.122v-.885z"
            id="Fill-315"></path>
        </g>
      </g>
      <g id="Icon">
        <path id="Fill-1" fill="#C7000D" d="M37.301 32.302l-14.613-3.46V10.766l14.613-4.23z"></path>
        <path id="Fill-2" fill="#E60013" d="M0 39.609L23.073 28.84V10.767L0 0z"></path>
      </g>
    </g>
  </g>
</svg>