<svg id="Layer_1" data-name="Layer 1" xmlns="http://www.w3.org/2000/svg" xmlns:xlink="http://www.w3.org/1999/xlink" viewBox="0 0 614.76 657.78">
  <defs>
    <style>
      .cls-1 {
        clip-path: url(#clip-path);
      }

      .cls-2 {
        fill: url(#linear-gradient);
      }

      .cls-3 {
        fill: #e55760;
      }

      .cls-4 {
        fill: #dae0d1;
      }
    </style>
    <clipPath id="clip-path" transform="translate(-1528.94 -388.54)" />
    <linearGradient id="linear-gradient" x1="1574.9" y1="708.59" x2="2130.23" y2="708.59" gradientTransform="translate(1123.37 -1135.97) rotate(47.5)"
      gradientUnits="userSpaceOnUse">
      <stop offset="0" />
      <stop offset="0.02" stop-color="#030303" />
      <stop offset="0.25" stop-color="#1d1b1b" />
      <stop offset="0.49" stop-color="#2f2c2c" />
      <stop offset="0.73" stop-color="#3a3736" />
      <stop offset="1" stop-color="#3e3a39" />
    </linearGradient>
  </defs>
  <title>black-hole-lower</title>
  <g class="cls-1">
    <ellipse class="cls-2" cx="1852.57" cy="708.59" rx="401.55" ry="79.85" transform="translate(-1450.4 1207.15) rotate(-47.5)"
    />
    <path class="cls-3" d="M1580.73,993.7c4.15-14.29,16.76-44.12,54.77-99.8,41.83-61.28,101.55-134.68,168.16-206.69,65.82-71.15,133.7-135.85,191.12-182.19,52.62-42.47,81.82-57.9,96.26-63.52l39.65-42.93c-5.15-4.65-14.09-10-27.89-10-16,0-35.67,7.15-61.77,22.5-22.07,13-48.14,31.57-77.5,55.26-59.24,47.8-129,114.26-196.4,187.12C1692,734.62,1626.63,816.1,1583,882.85c-21.8,33.38-37.2,61.66-45.76,84-4.55,11.89-18.38,48.07,4.33,69.08l0.21,0.19,39.41-42.67Z"
      transform="translate(-1528.94 -388.54)" />
    <path class="cls-3" d="M2131,398.87l-0.34-.3L2091,441.51l0.87-.34c-4.15,14.29-16.77,44.12-54.76,99.79C1995.32,602.24,1935.6,675.64,1869,747.65c-65.82,71.15-133.7,135.85-191.12,182.19-53.11,42.86-82.36,58.19-96.63,63.67l-39.41,42.67c5.13,4.67,14.1,10.14,28,10.14,16,0,35.67-7.15,61.77-22.5,22.07-13,48.14-31.57,77.5-55.26,59.24-47.81,129-114.26,196.4-187.12,75.13-81.2,140.5-162.68,184.1-229.43,21.8-33.38,37.2-61.66,45.76-84C2139.91,456.07,2153.74,419.88,2131,398.87Z"
      transform="translate(-1528.94 -388.54)" />
    <path class="cls-4" d="M2091,441.51l0.87-.36,0,0v0l-1.71,5.7c-0.62,1.88-1.33,3.74-2,5.61l-1,2.8-1.15,2.75-2.29,5.5c-1.61,3.63-3.37,7.2-5,10.8-0.82,1.81-1.78,3.55-2.68,5.32L2073.3,485c-0.93,1.76-1.8,3.55-2.78,5.28l-2.93,5.19c-2,3.45-3.88,6.94-5.91,10.36L2055.5,516c-2.06,3.4-4.1,6.81-6.28,10.13l-6.47,10-3.24,5c-1.1,1.72-2.23,3.3-3.35,5l-13.41,19.65c-9.27,12.91-18.53,25.87-28.19,38.46-9.46,12.77-19.42,25.14-29.25,37.63l-15.08,18.44-7.55,9.21-7.7,9.09-15.45,18.14-15.74,17.88-7.88,8.94-8,8.82-16,17.64-16.33,17.33-8.16,8.65-8.3,8.56-16.62,17.1-16.88,16.82-8.47,8.38-8.6,8.25-17.22,16.47-17.48,16.19c-5.8,5.43-11.81,10.63-17.74,15.91s-11.85,10.58-17.94,15.68-12.06,10.34-18.2,15.39l-18.55,15-2.34,1.88-2.36,1.81L1672,937l-9.44,7.23-2.37,1.8-2.42,1.75-4.84,3.49-9.68,7-9.87,6.69-4.94,3.34-5.05,3.17c-13.41,8.49-27.29,16.47-42.15,22.07l5.42-2.43c1.79-.85,3.53-1.8,5.3-2.69l2.64-1.36,2.58-1.48,5.14-3c1.73-1,3.38-2.06,5.06-3.1l5-3.16c0.83-.53,1.68-1,2.5-1.59l2.45-1.67,4.9-3.34,4.9-3.34,4.8-3.49,9.6-7,9.39-7.24,4.69-3.62,2.34-1.81,2.31-1.88,9.25-7.48,4.63-3.74,2.31-1.87,2.24-1.9L1696.81,911c11.86-10.49,23.83-20.84,35.39-31.66,11.73-10.63,23.09-21.66,34.62-32.51l17-16.6,8.48-8.31,8.35-8.45,16.73-16.86,16.48-17.08,8.23-8.55,8.13-8.68,16.23-17.35,16-17.53,8-8.76,7.88-8.88L1914.11,692l15.51-18,7.77-9,7.63-9.1,15.24-18.22,14.93-18.46c5-6.1,9.89-12.36,14.77-18.59l7.32-9.35c1.21-1.56,2.46-3.11,3.65-4.68l3.56-4.74,14.27-19,13.91-19.3c1.14-1.61,2.36-3.22,3.44-4.82l3.35-4.9,6.7-9.8c2.28-3.24,4.42-6.56,6.57-9.88l6.47-10c2.13-3.34,4.13-6.74,6.21-10.11l3.09-5.07c1-1.68,2-3.43,3-5.14l2.94-5.16c1-1.73,2-3.42,2.88-5.19,1.81-3.52,3.7-7,5.44-10.55l2.54-5.37,1.27-2.68,1.15-2.74c0.75-1.83,1.54-3.65,2.25-5.5l2-5.61,0,0Z"
      transform="translate(-1528.94 -388.54)" />
  </g>
</svg>