<svg id="Layer_1" data-name="Layer 1" xmlns="http://www.w3.org/2000/svg" xmlns:xlink="http://www.w3.org/1999/xlink" viewBox="0 0 836.09 894.6">
  <defs>
    <style>
      .cls-1 {
        clip-path: url(#clip-path);
      }

      .cls-2 {
        fill: url(#linear-gradient);
      }

      .cls-3 {
        fill: #e55760;
      }

      .cls-4 {
        fill: #dae0d1;
      }
    </style>
    <clipPath id="clip-path" transform="translate(-380.86 417.06)" />
    <linearGradient id="linear-gradient" x1="688.81" y1="-89.6" x2="907.2" y2="88.52" gradientTransform="translate(279.75 -599.38) rotate(47.5)"
      gradientUnits="userSpaceOnUse">
      <stop offset="0" />
      <stop offset="0.23" stop-color="#111010" />
      <stop offset="0.73" stop-color="#322e2e" />
      <stop offset="1" stop-color="#3e3a39" />
    </linearGradient>
  </defs>
  <title>G0V完稿視覺檔案黑洞上</title>
  <g class="cls-1">
    <ellipse class="cls-2" cx="821" cy="18.21" rx="546.12" ry="108.6" transform="translate(-127.96 1028.26) rotate(-47.5)"
    />
    <path class="cls-3" d="M451.29,406c5.64-19.43,22.8-60,74.49-135.73,56.88-83.35,138.11-183.17,228.7-281.1C844-107.63,936.31-195.62,1014.41-258.64,1086-316.4,1125.69-337.39,1145.33-345l53.93-58.39c-7-6.32-19.16-13.65-37.93-13.65-21.82,0-48.52,9.72-84,30.6-30,17.65-65.48,42.94-105.41,75.16-80.57,65-175.43,155.4-267.11,254.49-102.17,110.44-191.09,221.25-250.37,312-29.65,45.4-50.59,83.86-62.23,114.31-6.18,16.17-25,65.38,5.9,94l0.29,0.26,53.6-58Z"
      transform="translate(-380.86 417.06)" />
    <path class="cls-3" d="M1199.72-403l-0.46-.41L1145.33-345l1.19-.46c-5.65,19.44-22.81,60-74.48,135.71-56.89,83.35-138.11,183.18-228.7,281.1C753.81,168.1,661.5,256.09,583.4,319.11c-72.24,58.29-112,79.13-131.42,86.59l-53.6,58c7,6.36,19.18,13.8,38.1,13.8,21.82,0,48.51-9.72,84-30.6,30-17.65,65.48-42.94,105.41-75.16,80.57-65,175.43-155.39,267.1-254.49C995.18,6.85,1084.09-104,1143.38-194.74,1173-240.14,1194-278.61,1205.61-309,1211.79-325.22,1230.61-374.43,1199.72-403Z"
      transform="translate(-380.86 417.06)" />
    <path class="cls-4" d="M1145.33-345l1.18-.49,0.06,0,0,0.06-2.32,7.76c-0.85,2.56-1.81,5.08-2.71,7.63-0.46,1.27-.91,2.55-1.39,3.81l-1.56,3.74-3.12,7.49c-0.5,1.26-1.09,2.47-1.67,3.69L1132-307.7l-3.46,7.33c-1.11,2.47-2.43,4.83-3.65,7.24l-3.73,7.2c-1.26,2.39-2.45,4.83-3.78,7.18l-4,7.06c-2.68,4.69-5.28,9.44-8,14.09l-8.4,13.87-4.2,6.94c-1.38,2.33-2.9,4.56-4.34,6.85l-8.8,13.61-4.4,6.81c-1.5,2.34-3,4.48-4.55,6.73l-18.24,26.72c-12.61,17.56-25.2,35.18-38.34,52.31-12.86,17.37-26.41,34.2-39.78,51.17L953.83-47.52,943.56-35,933.09-22.63Q922.63-10.25,912.08,2L890.68,26.37,880,38.52l-10.89,12-21.78,24L825.09,98.09,814,109.86,802.7,121.49l-22.6,23.25q-11.45,11.47-23,22.87L745.63,179l-11.7,11.21c-7.81,7.46-15.57,15-23.42,22.4l-23.78,22c-7.89,7.38-16.06,14.45-24.13,21.64s-16.11,14.39-24.4,21.33-16.41,14.06-24.75,20.93l-25.23,20.35L585,321.46l-3.21,2.46-6.42,4.92-12.84,9.84-3.22,2.45-3.29,2.38-6.58,4.75-13.16,9.49-13.42,9.1-6.71,4.54-6.87,4.31-6.87,4.3L499,382.13c-1.15.71-2.34,1.36-3.5,2l-7,4c-2.36,1.32-4.64,2.76-7.08,4l-7.2,3.72-3.6,1.85-3.69,1.69c-2.47,1.1-4.89,2.29-7.38,3.32l-7.54,3,7.38-3.31c2.43-1.15,4.8-2.45,7.2-3.66l3.59-1.85,3.5-2,7-4c2.36-1.3,4.59-2.81,6.88-4.22l6.83-4.3c1.13-.72,2.29-1.41,3.4-2.17l3.34-2.27,6.67-4.55,6.66-4.55L521,364,534,354.56l12.77-9.85,6.38-4.92,3.19-2.46,3.14-2.55,12.58-10.18,6.29-5.08,3.15-2.54,3.05-2.59,24.61-20.91c16.12-14.27,32.41-28.34,48.14-43.06,16-14.46,31.41-29.46,47.08-44.22,7.74-7.48,15.39-15.06,23.09-22.58L739,172.3l11.35-11.49,22.75-22.93,22.41-23.23L806.72,103l11.05-11.81,22.08-23.59,21.8-23.84,10.9-11.92,10.72-12.08L904.7-4.38l21.09-24.46,10.57-12.21,10.38-12.37,20.72-24.78,20.31-25.11,5.1-6.26,2.55-3.13,2.49-3.18,10-12.71,10-12.71c1.65-2.12,3.34-4.22,5-6.37l4.84-6.45,19.4-25.78,18.91-26.25c1.55-2.18,3.21-4.38,4.67-6.55l4.55-6.66,9.12-13.32c1.51-2.23,3.09-4.41,4.54-6.68l4.4-6.76,8.8-13.53c2.89-4.54,5.62-9.17,8.44-13.75l4.2-6.89c1.42-2.29,2.68-4.66,4-7l4-7c1.31-2.35,2.71-4.65,3.91-7.06l3.73-7.16,1.87-3.58c0.62-1.19,1.26-2.38,1.8-3.61l3.45-7.3,1.73-3.65c0.54-1.23,1-2.48,1.56-3.72,1-2.49,2.1-5,3.06-7.48l2.68-7.63,0,0Z"
      transform="translate(-380.86 417.06)" />
  </g>
</svg>