<svg id="Layer_1" data-name="Layer 1" xmlns="http://www.w3.org/2000/svg" xmlns:xlink="http://www.w3.org/1999/xlink" viewBox="0 0 477.22 504.3">
  <defs>
    <style>
      .cls-1 {
        fill: none;
      }

      .cls-2 {
        clip-path: url(#clip-path);
      }

      .cls-3 {
        fill: url(#linear-gradient);
      }

      .cls-4 {
        fill: #871c21;
      }

      .cls-5 {
        fill: url(#linear-gradient-2);
      }

      .cls-6 {
        fill: #fff;
      }

      .cls-7 {
        fill: url(#linear-gradient-3);
      }

      .cls-8 {
        fill: url(#linear-gradient-4);
      }

      .cls-9 {
        fill: #b91c22;
      }
    </style>
    <clipPath id="clip-path" transform="translate(-1240.33 -271.19)">
      <rect class="cls-1" x="725.79" y="-2" width="1446" height="904" />
    </clipPath>
    <linearGradient id="linear-gradient" x1="1536.99" y1="560.04" x2="1635.92" y2="642.19" gradientUnits="userSpaceOnUse">
      <stop offset="0" stop-color="#231815" />
      <stop offset="0.33" stop-color="#261c19" />
      <stop offset="0.68" stop-color="#302927" />
      <stop offset="1" stop-color="#3e3a39" />
    </linearGradient>
    <linearGradient id="linear-gradient-2" x1="1396.11" y1="426.86" x2="1514.17" y2="539.07" gradientUnits="userSpaceOnUse">
      <stop offset="0" stop-color="#3e3a39" />
      <stop offset="0.32" stop-color="#302927" />
      <stop offset="0.67" stop-color="#261c19" />
      <stop offset="1" stop-color="#231815" />
    </linearGradient>
    <linearGradient id="linear-gradient-3" x1="1683.44" y1="262.66" x2="1536.69" y2="402.13" gradientUnits="userSpaceOnUse">
      <stop offset="0" stop-color="#b81c22" />
      <stop offset="0.38" stop-color="#b61c22" />
      <stop offset="0.6" stop-color="#ad1c22" />
      <stop offset="0.78" stop-color="#a01c22" />
      <stop offset="0.93" stop-color="#8c1c21" />
      <stop offset="1" stop-color="#801c21" />
    </linearGradient>
    <linearGradient id="linear-gradient-4" x1="1240.33" y1="649.94" x2="1377.54" y2="649.94" xlink:href="#linear-gradient-3"
    />
  </defs>
  <title>core2</title>
  <g class="cls-2">
    <path class="cls-3" d="M1604.08,537.29a91.38,91.38,0,0,1-113.55,88.62c-16.22,16.07-32.31,31.37-48,45.6a150.55,150.55,0,0,0,70.16,17.26c83.53,0,151.49-68,151.49-151.49a150.59,150.59,0,0,0-23.57-81.07c-12.66,16.67-26.54,34-41.4,51.71A91,91,0,0,1,1604.08,537.29Z"
      transform="translate(-1240.33 -271.19)" />
    <path class="cls-4" d="M1522.39,446.44a91.38,91.38,0,0,0-99.89,105.18c12.65-14.5,25.86-29.13,39.46-43.69C1482.07,486.42,1502.43,465.72,1522.39,446.44Z"
      transform="translate(-1240.33 -271.19)" />
    <path class="cls-1" d="M1462,507.94c-13.6,14.56-26.81,29.19-39.46,43.69a91,91,0,0,0,19,42.78c18-17.6,36.32-36.3,54.42-55.66,24.19-25.88,47.13-52,67.88-77.18a90.81,90.81,0,0,0-41.39-15.12C1502.43,465.72,1482.07,486.42,1462,507.94Z"
      transform="translate(-1240.33 -271.19)" />
    <path class="cls-1" d="M1490.53,625.91a91.37,91.37,0,0,0,108.71-118c-19.08,22.74-39.76,46.07-61.53,69.37C1522.06,594.05,1506.24,610.34,1490.53,625.91Z"
      transform="translate(-1240.33 -271.19)" />
    <path class="cls-1" d="M1337.84,658.94c-13.49,19.57-22.49,34.55-28.49,45.82,11.18-7,26.07-17.37,45.49-32.88,13.54-10.82,27.88-23,42.71-36.31a152.13,152.13,0,0,1-20-30C1362.74,624.27,1349.36,642.23,1337.84,658.94Z"
      transform="translate(-1240.33 -271.19)" />
    <path class="cls-1" d="M1620,387.73c13.49-19.57,22.49-34.55,28.49-45.81-11.18,7-26.07,17.37-45.49,32.88-9.27,7.4-18.91,15.45-28.82,24.06A151.51,151.51,0,0,1,1601,414.24Q1611.17,400.57,1620,387.73Z"
      transform="translate(-1240.33 -271.19)" />
    <path class="cls-5" d="M1574.21,398.85a150.59,150.59,0,0,0-61.48-13.05c-3.13,0-6.23.11-9.3,0.29-78.66,4.79-141.29,69.87-142.16,149.52,0,0.56,0,1.11,0,1.67a150.55,150.55,0,0,0,16.3,68.3,152.13,152.13,0,0,0,20,30c14.28-12.8,29-26.6,43.94-41.17a91.31,91.31,0,0,1,122.3-132.84c13.41-16.27,25.9-32.15,37.2-47.32A151.51,151.51,0,0,0,1574.21,398.85Z"
      transform="translate(-1240.33 -271.19)" />
    <path class="cls-6" d="M1601,414.24l-4.14-2.68-2.26-1.46-2.8-1.62c-2-1.16-4.31-2.53-7-3.86-1.33-.68-2.72-1.43-4.21-2.15l-4.72-2.14c-0.82-.36-1.66-0.79-2.51-1.1l-2.68-1.05c-1.82-.69-3.69-1.52-5.67-2.13a150.4,150.4,0,0,0-27-6.78c-1.25-.25-2.54-0.38-3.83-0.53l-3.91-.47c-1.31-.19-2.65-0.26-4-0.35l-4.08-.27c-1.37-.12-2.76-0.1-4.15-0.13l-4.22-.07-1.06,0-1,0-2.17.09-4.39.18-1.11,0-0.55,0-0.46,0-2.22.21-4.49.43-4.44.64c-1.49.21-3,.41-4.48,0.73l-4.53.88c-1.52.29-3,.7-4.53,1.05-3,.66-6.05,1.62-9.1,2.49a148.59,148.59,0,0,0-18,6.94l-2.23,1-2.19,1.12c-1.46.75-2.94,1.47-4.39,2.26-2.87,1.63-5.79,3.2-8.57,5s-5.56,3.69-8.32,5.58c-2.65,2-5.39,4-7.93,6.21s-5.08,4.43-7.57,6.71c-1.22,1.16-2.39,2.39-3.59,3.58-0.59.6-1.2,1.19-1.78,1.8l-1.7,1.88a150.25,150.25,0,0,0-23.09,32.94l-2.24,4.45-2,4.53c-0.71,1.49-1.3,3-1.9,4.55s-1.24,3-1.77,4.58c-1.05,3.09-2.15,6.14-3,9.26s-1.64,6.21-2.39,9.29c-0.38,1.54-.61,3.11-0.92,4.65s-0.63,3.08-.81,4.63c-0.42,3.09-.9,6.14-1.13,9.19-0.13,1.52-.32,3-0.39,4.54l-0.2,4.51-0.1,2.23,0,1.13v0.42a0.5,0.5,0,0,0,0,.08v0.56q0,2.24.09,4.45c0,1.47,0,2.95.11,4.38l0.34,4.24,0.33,4.18,0.56,4.11,0.55,4c0.18,1.34.5,2.64,0.74,3.94,0.54,2.6.94,5.18,1.65,7.63l0.95,3.67c0.33,1.21.59,2.42,1,3.57l2.19,6.82c1.64,4.35,3.13,8.53,4.92,12.28l1.26,2.8c0.21,0.45.41,0.94,0.61,1.34l0.68,1.31,2.61,5c0.8,1.63,1.74,3.07,2.58,4.49l2.43,4c3.3,5,5.93,8.91,8,11.4l3,3.92-3.19-3.76a139.31,139.31,0,0,1-8.5-11.07l-2.6-4c-0.9-1.4-1.91-2.84-2.76-4.43l-2.8-4.9-0.73-1.28c-0.26-.48-0.46-0.91-0.69-1.37L1374.9,602c-2-3.73-3.62-7.89-5.45-12.25l-2.43-6.85c-0.44-1.16-.74-2.38-1.11-3.6l-1.07-3.7c-0.79-2.48-1.26-5.09-1.88-7.72-0.28-1.32-.64-2.64-0.86-4l-0.67-4.11-0.67-4.19-0.43-4.31-0.43-4.38c-0.1-1.46-.13-2.92-0.2-4.39a150.56,150.56,0,0,1,3-37.32c0.72-3.18,1.39-6.4,2.34-9.57s1.91-6.36,3-9.55a146.48,146.48,0,0,1,8-18.7,149.37,149.37,0,0,1,10.63-17.73,147.3,147.3,0,0,1,13-16.28l1.76-1.93c0.6-.63,1.23-1.23,1.84-1.85,1.24-1.22,2.45-2.48,3.71-3.67,2.57-2.34,5.11-4.71,7.82-6.88s5.45-4.27,8.19-6.37c2.85-1.94,5.64-4,8.59-5.71s5.88-3.48,8.85-5.13c1.5-.8,3-1.52,4.54-2.28l2.27-1.12,2.31-1a152.73,152.73,0,0,1,18.6-6.92c3.14-.86,6.24-1.8,9.37-2.45,1.56-.34,3.1-0.75,4.67-1l4.66-.81c1.54-.3,3.1-0.48,4.64-0.67l4.61-.57,4.5-.34,2.23-.17,0.65,0H1504l1.11,0a148,148,0,0,1,33.38,2.35,140.83,140.83,0,0,1,27.17,7.78c2,0.7,3.81,1.58,5.61,2.35l2.64,1.15c0.9,0.37,1.69.82,2.51,1.22l4.67,2.33c1.47,0.78,2.84,1.59,4.15,2.32s2.57,1.41,3.7,2.14l3.17,2,2.72,1.76,2.19,1.57Z"
      transform="translate(-1240.33 -271.19)" />
    <path class="cls-7" d="M1704.87,281.43c-5.1-4.67-14.06-10.24-27.76-10.24s-30,5.69-51,17.92c-16.84,9.8-36.64,23.77-58.85,41.51-20,16-41.57,34.74-63.86,55.47,3.08-.19,6.18-0.29,9.3-0.29a150.62,150.62,0,0,1,61.48,13c9.91-8.6,19.55-16.65,28.82-24.05,19.42-15.51,34.3-25.91,45.49-32.88-0.56,1.05-1.16,2.15-1.77,3.26l59.13-62.77C1705.54,282.08,1705.22,281.75,1704.87,281.43Z"
      transform="translate(-1240.33 -271.19)" />
    <path class="cls-8" d="M1337.84,658.95c11.52-16.71,24.9-34.67,39.7-53.36a150.55,150.55,0,0,1-16.3-68.3c0-.56,0-1.12,0-1.67-31.31,37.12-58.42,72.72-79.05,104-16.61,25.18-28.39,46.64-35,63.79-1.82,4.72-5.61,14.53-6.62,25.61-1.32,14.46,2.63,26.61,11.41,35.26l59.15-62.79A500,500,0,0,1,1337.84,658.95Z"
      transform="translate(-1240.33 -271.19)" />
    <path class="cls-9" d="M1705.88,282.41l-59.13,62.77A500.33,500.33,0,0,1,1620,387.73q-8.83,12.8-19,26.51c-11.31,15.17-23.8,31.05-37.2,47.32-20.75,25.18-43.69,51.29-67.88,77.18-18.09,19.36-36.39,38.07-54.42,55.66-14.92,14.57-29.65,28.37-43.94,41.17-14.83,13.29-29.17,25.49-42.71,36.31-19.41,15.51-34.31,25.91-45.49,32.88,0.57-1.06,1.17-2.17,1.79-3.3L1252,764.26c0.34,0.33.67,0.67,1,1,5.1,4.67,14.05,10.24,27.76,10.24s30-5.7,51-17.92c16.83-9.8,36.63-23.77,58.85-41.52,16.42-13.11,33.91-28.12,52-44.54,15.66-14.23,31.75-29.53,48-45.6,15.71-15.57,31.53-31.86,47.18-48.6,21.77-23.3,42.45-46.64,61.53-69.37,14.86-17.71,28.74-35,41.4-51.71,13.07-17.21,24.83-33.7,35-49.14,16.61-25.18,28.39-46.64,35-63.78,1.82-4.72,5.61-14.53,6.63-25.61C1718.61,303.21,1714.66,291.06,1705.88,282.41Z"
      transform="translate(-1240.33 -271.19)" />
  </g>
</svg>
