<svg id="Layer_1" data-name="Layer 1" xmlns="http://www.w3.org/2000/svg" xmlns:xlink="http://www.w3.org/1999/xlink" viewBox="0 0 1451.13 1350.48">
  <defs>
    <style>
      .cls-1,
      .cls-4 {
        fill: none;
      }

      .cls-2 {
        clip-path: url(#clip-path);
      }

      .cls-3 {
        fill: #dddfdb;
      }

      .cls-4 {
        stroke: #70706e;
        stroke-miterlimit: 10;
        stroke-dasharray: 5;
      }

      .cls-5 {
        fill: #3c3e3d;
      }

      .cls-6 {
        fill: #e55760;
      }

      .cls-7 {
        opacity: 0.8;
      }

      .cls-8 {
        fill: #ecd92f;
      }

      .cls-16,
      .cls-8,
      .cls-9 {
        opacity: 0.5;
      }

      .cls-9 {
        fill: #eb6721;
      }

      .cls-10 {
        fill: #d65128;
      }

      .cls-11 {
        fill: #d2bcda;
      }

      .cls-12 {
        fill: #050202;
      }

      .cls-12,
      .cls-13 {
        fill-rule: evenodd;
      }

      .cls-13 {
        fill: #ba1e22;
      }

      .cls-14 {
        fill: url(#linear-gradient);
      }

      .cls-15 {
        fill: #871c21;
      }

      .cls-16 {
        fill: #e98017;
      }

      .cls-17 {
        fill: #e2d324;
      }

      .cls-18 {
        fill: url(#linear-gradient-2);
      }

      .cls-19 {
        fill: #fff;
      }

      .cls-20 {
        fill: url(#linear-gradient-3);
      }

      .cls-21 {
        fill: url(#linear-gradient-4);
      }

      .cls-22 {
        fill: #496090;
      }

      .cls-23 {
        fill: #8fd1df;
      }

      .cls-24 {
        fill: #b91c22;
      }

      .cls-25 {
        fill: #805ca3;
      }

      .cls-26 {
        fill: #abd5a4;
      }

      .cls-27 {
        fill: #2f9239;
      }

      .cls-28 {
        fill: #addce7;
      }

      .cls-29 {
        fill: #5dafc4;
      }

      .cls-30 {
        fill: #0a6d9f;
      }

      .cls-31 {
        fill: #f3c98e;
      }

      .cls-32 {
        fill: #ea9393;
      }

      .cls-33 {
        fill: #c22c1f;
      }

      .cls-34 {
        fill: #231815;
      }

      .cls-35 {
        fill: #dae0d1;
      }

      .cls-36 {
        fill: #4b4c4b;
      }
    </style>
    <clipPath id="clip-path" transform="translate(465.14 405.06)">
      <rect class="cls-1" x="-5" y="17.06" width="612" height="860" />
    </clipPath>
    <linearGradient id="linear-gradient" x1="312.18" y1="438.25" x2="377.54" y2="492.52" gradientUnits="userSpaceOnUse">
      <stop offset="0" stop-color="#231815" />
      <stop offset="0.33" stop-color="#261c19" />
      <stop offset="0.68" stop-color="#302927" />
      <stop offset="1" stop-color="#3e3a39" />
    </linearGradient>
    <linearGradient id="linear-gradient-2" x1="219.1" y1="350.25" x2="297.1" y2="424.39" gradientUnits="userSpaceOnUse">
      <stop offset="0" stop-color="#3e3a39" />
      <stop offset="0.32" stop-color="#302927" />
      <stop offset="0.67" stop-color="#261c19" />
      <stop offset="1" stop-color="#231815" />
    </linearGradient>
    <linearGradient id="linear-gradient-3" x1="408.94" y1="241.77" x2="311.98" y2="333.92" gradientUnits="userSpaceOnUse">
      <stop offset="0" stop-color="#b81c22" />
      <stop offset="0.38" stop-color="#b61c22" />
      <stop offset="0.6" stop-color="#ad1c22" />
      <stop offset="0.78" stop-color="#a01c22" />
      <stop offset="0.93" stop-color="#8c1c21" />
      <stop offset="1" stop-color="#801c21" />
    </linearGradient>
    <linearGradient id="linear-gradient-4" x1="116.17" y1="497.64" x2="206.83" y2="497.64" xlink:href="#linear-gradient-3"
    />
  </defs>
  <title>G0V完稿視覺檔案小</title>
  <g class="cls-2">
    <rect class="cls-3" x="460.14" y="422.12" width="612" height="860" />
    <line class="cls-4" x1="302.14" y1="374.12" x2="1292.14" y2="1350.12" />
    <ellipse class="cls-5" cx="520.68" cy="536.39" rx="265.31" ry="52.76" transform="translate(238.58 962.94) rotate(-47.5)"
    />
    <path class="cls-6" d="M341.08,724.77c2.74-9.44,11.08-29.15,36.19-65.94,27.63-40.49,67.09-89,111.1-136.56,43.49-47,88.33-89.76,126.27-120.37,34.77-28.06,54.06-38.26,63.6-42l26.2-28.37c-3.4-3.07-9.31-6.63-18.42-6.63-10.6,0-23.57,4.72-40.81,14.86-14.58,8.57-31.81,20.86-51.21,36.51-39.14,31.58-85.22,75.49-129.76,123.63C414.6,553.59,371.4,607.43,342.6,651.53c-14.41,22.06-24.58,40.74-30.23,55.53-3,7.86-12.14,31.76,2.86,45.64l0.14,0.13,26-28.19Z"
      transform="translate(465.14 405.06)" />
    <g class="cls-7">
      <rect class="cls-8" x="647.4" y="676.06" width="598.74" height="21.06" />
      <rect class="cls-9" x="647.4" y="697.12" width="598.74" height="11.06" />
    </g>
    <circle class="cls-10" cx="649.7" cy="692.12" r="16.06" />
    <rect class="cls-11" x="712.64" y="567.62" width="391.5" height="21" />
    <path class="cls-12" d="M108.56,745.39a56.64,56.64,0,0,0-10.3-2.53,75.51,75.51,0,0,0-17.14-.64,29.58,29.58,0,0,0-7.41,1.38,8.23,8.23,0,0,0-5.94,8,17.17,17.17,0,0,0,.16,4.12c0.82,4.28,3.93,6.18,7.77,7.07a49.41,49.41,0,0,0,15.28.85,29.48,29.48,0,0,0,7.13-1.17c2-.66,3.53-1.72,4-3.94,0.26-1.16.16-1.67-1.25-1.66-6.24.07-12.48,0-18.72,0.06-1.11,0-1.58-.19-1.47-1.41a26.77,26.77,0,0,0,0-4c-0.06-1,.15-1.32,1.23-1.31q14,0.08,28,0c0.93,0,1.36.1,1.33,1.22a44.52,44.52,0,0,1-.65,8.71c-1.08,4.73-4.25,7.58-8.59,8.93-6.86,2.13-14,2.32-21.09,1.85a67.79,67.79,0,0,1-11.37-1.75,15.61,15.61,0,0,1-11.7-14.07c-0.2-4.05.08-8,2.21-11.62,2.64-4.5,6.85-6.42,11.65-7.5,7.61-1.7,15.3-1.55,23-1.08a81.69,81.69,0,0,1,12.66,2c0.75,0.17,1.21.28,1.19,1.18C108.53,740.5,108.56,742.87,108.56,745.39Z"
      transform="translate(465.14 405.06)" />
    <path class="cls-12" d="M174.38,737.06c3.09,1.66,5.91,3.61,7.6,6.82,4.21,8,2.89,21.39-9,25.07a56.29,56.29,0,0,1-20.75,2,29.61,29.61,0,0,0-4.74-.2l-8-1.8c-2.56-1.37-5.17-2.64-7.07-5a15.77,15.77,0,0,1-3.55-9.2c-0.26-4.19.16-8.23,2.54-11.86,2.66-4,6.67-5.87,11.18-6.92a67.65,67.65,0,0,1,21.19-1.07c0.88,0.07,1.76.06,2.64,0.09ZM169,743.69a21.82,21.82,0,0,0-8.31-1.79,1.21,1.21,0,0,0-.43-0.21,57.4,57.4,0,0,0-13,.67c-5.72,1.18-8,3.4-8.67,9-0.56,4.75,1.3,9,6.41,10.47a27.23,27.23,0,0,0,8.65,1.4c5.52,0.54,10.94.27,16.08-2a7.33,7.33,0,0,0,4-4.62,13.15,13.15,0,0,0,.39-6.35C173.57,747.17,172.07,744.77,169,743.69Z"
      transform="translate(465.14 405.06)" />
    <path class="cls-12" d="M197.4,736c3.81,0,7.38,0,11,0,1.2,0,1.46,1.05,1.94,1.76,3.11,4.59,6.15,9.23,9.26,13.82,2.52,3.71,5.11,7.36,7.75,11.16,5.45-8.1,10.87-16,16.11-24,1.31-2,2.66-3,5.13-2.74s5.15,0.06,7.93.06c-3,4.41-5.91,8.66-8.83,12.89-4.49,6.51-9,13-13.49,19.53a2.9,2.9,0,0,1-2.8,1.49c-3-.12-6-0.11-8.94,0a2.64,2.64,0,0,1-2.53-1.39q-4.66-6.89-9.42-13.72C206.19,748.56,201.89,742.4,197.4,736Z"
      transform="translate(465.14 405.06)" />
    <path class="cls-13" d="M174.38,737.06l-8.05-2c5.24-6.66,10.58-13.24,15.66-20,1.66-2.21,3.35-3.26,6.11-2.92a52.23,52.23,0,0,0,6.17,0C187.31,720.45,180.9,728.8,174.38,737.06Z"
      transform="translate(465.14 405.06)" />
    <path class="cls-13" d="M139.4,769l8,1.8-16.9,21.59a1.43,1.43,0,0,1-1.21.71c-3,0-6,0-9.42,0,2.46-3,4.73-5.62,6.9-8.36,3.77-4.75,7.47-9.54,11.21-14.31A18.43,18.43,0,0,1,139.4,769Z"
      transform="translate(465.14 405.06)" />
    <path class="cls-13" d="M169,743.69c-3.37,4.74-7.18,9.13-10.74,13.72-1.51,1.95-3.08,3.85-4.62,5.77a27.23,27.23,0,0,1-8.65-1.4c4.19-5.64,8.67-11,13.11-16.49,0.9-1.11,1.73-2.27,2.59-3.4A21.78,21.78,0,0,1,169,743.69Z"
      transform="translate(465.14 405.06)" />
    <path class="cls-14" d="M356.5,423.21a60.37,60.37,0,0,1-75,58.55c-10.71,10.62-21.35,20.73-31.69,30.13A100,100,0,0,0,380.66,369.65c-8.36,11-17.54,22.47-27.35,34.17A60.1,60.1,0,0,1,356.5,423.21Z"
      transform="translate(465.14 405.06)" />
    <path class="cls-15" d="M302.53,363.19a60.37,60.37,0,0,0-66,69.49c8.36-9.58,17.09-19.25,26.08-28.87C275.89,389.61,289.34,375.93,302.53,363.19Z"
      transform="translate(465.14 405.06)" />
    <rect class="cls-8" x="548.49" y="803.88" width="754.65" height="40.48" />
    <rect class="cls-16" x="551.14" y="820.12" width="758" height="10" />
    <path class="cls-1" d="M262.61,403.82c-9,9.62-17.72,19.29-26.08,28.87A60.12,60.12,0,0,0,249.08,461c11.91-11.63,24-24,36-36.78,16-17.1,31.14-34.36,44.85-51a60,60,0,0,0-27.35-10C289.34,375.93,275.89,389.61,262.61,403.82Z"
      transform="translate(465.14 405.06)" />
    <path class="cls-1" d="M281.48,481.77a60.37,60.37,0,0,0,71.82-77.95c-12.6,15-26.27,30.44-40.65,45.84C302.32,460.72,291.86,471.48,281.48,481.77Z"
      transform="translate(465.14 405.06)" />
    <path class="cls-1" d="M180.6,503.59a316.2,316.2,0,0,0-18.82,30.27,322.65,322.65,0,0,0,30.06-21.72c8.95-7.15,18.42-15.21,28.22-24a100.41,100.41,0,0,1-13.22-19.81C197,480.69,188.21,492.55,180.6,503.59Z"
      transform="translate(465.14 405.06)" />
    <path class="cls-1" d="M367,324.4a316.19,316.19,0,0,0,18.82-30.27,322.38,322.38,0,0,0-30.05,21.72c-6.12,4.89-12.49,10.21-19,15.89a100.17,100.17,0,0,1,17.69,10.17Q361.19,332.88,367,324.4Z"
      transform="translate(465.14 405.06)" />
    <circle class="cls-17" cx="551.38" cy="824.12" r="20.24" />
    <path class="cls-18" d="M336.77,331.75a99.51,99.51,0,0,0-40.62-8.62c-2.07,0-4.11.07-6.15,0.19a100.21,100.21,0,0,0-93.93,98.79c0,0.37,0,.74,0,1.11a99.76,99.76,0,0,0,24,64.94c9.43-8.45,19.17-17.58,29-27.2a60.32,60.32,0,0,1,47.07-98.1,60.75,60.75,0,0,1,6.38.34,60,60,0,0,1,27.35,10c8.86-10.75,17.11-21.24,24.58-31.27A100.17,100.17,0,0,0,336.77,331.75Z"
      transform="translate(465.14 405.06)" />
    <path class="cls-19" d="M354.46,341.92l-2.74-1.77-1.49-1-1.85-1.07c-1.33-.77-2.85-1.67-4.62-2.55a96.69,96.69,0,0,0-13.07-5.67,101.08,101.08,0,0,0-17.83-4.5,98.24,98.24,0,0,0-21.7-1l-0.73,0-0.37,0-0.31,0-1.47.14-3,.29c-1.95.31-3.91,0.51-5.9,0.92l-3,.58c-1,.2-2,0.47-3,0.7-2,.44-4,1.07-6,1.64A99.82,99.82,0,0,0,244,339.53c-1.89,1.13-3.67,2.44-5.5,3.69s-3.56,2.64-5.24,4.11-3.36,2.93-5,4.43c-0.81.77-1.58,1.58-2.37,2.36s-1.56,1.6-2.3,2.43a99.24,99.24,0,0,0-15.25,21.76l-1.48,2.94-1.34,3c-0.47,1-.86,2-1.26,3s-0.82,2-1.17,3a98.19,98.19,0,0,0-5.44,24.46c-0.09,1-.21,2-0.26,3l-0.14,3-0.07,1.47,0,0.74v0.7q0,1.48.05,2.94a100.05,100.05,0,0,0,8.84,38.9c1.07,2.53,2.31,4.78,3.41,6.91,0.53,1.08,1.15,2,1.7,3l1.6,2.67c2.18,3.29,3.92,5.89,5.26,7.53l2,2.59-2.11-2.49a91.9,91.9,0,0,1-5.62-7.31l-1.72-2.64c-0.59-.93-1.26-1.88-1.83-2.93-1.17-2.07-2.52-4.31-3.7-6.83s-2.39-5.21-3.6-8.09l-1.6-4.53c-0.54-1.55-.94-3.18-1.43-4.83a101.5,101.5,0,0,1-3.39-21.86A98.38,98.38,0,0,1,197,402a105.79,105.79,0,0,1,3.5-12.64A96.71,96.71,0,0,1,205.79,377a98.57,98.57,0,0,1,7-11.72,97.32,97.32,0,0,1,8.6-10.75c0.77-.86,1.55-1.7,2.38-2.5s1.62-1.64,2.45-2.42c1.7-1.55,3.38-3.12,5.17-4.55s3.6-2.82,5.41-4.21,3.73-2.62,5.67-3.77,3.89-2.3,5.85-3.39c1-.53,2-1,3-1.5l1.5-.74,1.52-.67a100.9,100.9,0,0,1,12.29-4.57c2.08-.57,4.12-1.19,6.19-1.62,1-.22,2.05-0.49,3.08-0.67l3.08-.53c2-.36,4.1-0.54,6.11-0.8l3-.22,1.47-.11,0.43,0h0.37l0.73,0a100.19,100.19,0,0,1,22,1.54,91.67,91.67,0,0,1,18,5.12,97.37,97.37,0,0,1,12.94,6.2c0.86,0.5,1.7.93,2.44,1.41l2.09,1.35,1.8,1.16,1.44,1Z"
      transform="translate(465.14 405.06)" />
    <path class="cls-20" d="M423.1,254.17a26.45,26.45,0,0,0-18.34-6.76c-9.1,0-19.81,3.76-33.68,11.84-11.12,6.47-24.21,15.7-38.88,27.43-13.21,10.55-27.47,23-42.19,36.65,2-.12,4.08-0.19,6.15-0.19a99.51,99.51,0,0,1,40.62,8.62c6.55-5.68,12.92-11,19-15.89a322.38,322.38,0,0,1,30.05-21.72c-0.37.69-.76,1.42-1.17,2.16l39.07-41.47C423.54,254.6,423.33,254.38,423.1,254.17Z"
      transform="translate(465.14 405.06)" />
    <path class="cls-21" d="M180.6,503.6c7.61-11,16.45-22.91,26.23-35.25a99.47,99.47,0,0,1-10.77-45.13c0-.37,0-0.74,0-1.11-20.69,24.53-38.6,48-52.23,68.71-11,16.64-18.76,30.81-23.13,42.14a63.23,63.23,0,0,0-4.37,16.92c-0.87,9.55,1.74,17.58,7.54,23.29L163,531.69A330.92,330.92,0,0,1,180.6,503.6Z"
      transform="translate(465.14 405.06)" />
    <rect class="cls-22" x="718" y="715.61" width="594.14" height="9.02" />
    <circle class="cls-23" cx="718.65" cy="720.12" r="4.51" />
    <path class="cls-24" d="M423.76,254.82L384.7,296.29A330.81,330.81,0,0,1,367,324.4q-5.83,8.46-12.58,17.51c-7.47,10-15.72,20.52-24.58,31.27-13.71,16.64-28.87,33.89-44.85,51-12,12.79-24,25.15-36,36.78-9.86,9.62-19.59,18.75-29,27.2-9.8,8.78-19.27,16.84-28.22,24a322.67,322.67,0,0,1-30.06,21.72c0.37-.7.77-1.43,1.18-2.18l-39.08,41.49c0.22,0.22.44,0.44,0.67,0.65a26.46,26.46,0,0,0,18.34,6.77c9.1,0,19.81-3.76,33.68-11.84,11.12-6.48,24.2-15.7,38.88-27.43,10.85-8.66,22.4-18.58,34.34-29.43,10.35-9.4,21-19.51,31.69-30.13,10.38-10.29,20.83-21,31.17-32.11,14.39-15.39,28-30.81,40.65-45.84,9.82-11.7,19-23.16,27.35-34.17,8.63-11.37,16.41-22.27,23.14-32.47,11-16.63,18.76-30.81,23.13-42.14a63.19,63.19,0,0,0,4.38-16.92C432.18,268.56,429.57,260.53,423.76,254.82Z"
      transform="translate(465.14 405.06)" />
    <circle class="cls-25" cx="714.14" cy="578.12" r="10.5" />
    <rect class="cls-26" x="534" y="641.61" width="594.14" height="9.02" />
    <circle class="cls-27" cx="534.65" cy="646.12" r="4.51" />
    <rect class="cls-28" x="561.04" y="921.81" width="679.98" height="18.43" />
    <circle class="cls-29" cx="562.36" cy="931.02" r="9.22" />
    <rect class="cls-29" x="650.82" y="935.62" width="526.81" height="14.28" />
    <circle class="cls-30" cx="651.84" cy="942.76" r="7.14" />
    <rect class="cls-31" x="582.64" y="611.63" width="516.5" height="21" />
    <rect class="cls-32" x="506" y="623.61" width="594.14" height="9.02" />
    <circle class="cls-33" cx="506.65" cy="628.12" r="4.51" />
    <circle class="cls-10" cx="584.14" cy="622.13" r="10.5" />
    <rect class="cls-26" x="753.7" y="998.51" width="697.43" height="10.59" />
    <circle class="cls-27" cx="754.45" cy="1003.8" r="5.29" />
    <rect class="cls-26" x="810.79" y="963.31" width="606.3" height="24.65" />
    <rect class="cls-22" x="720.83" y="977.38" width="697.43" height="10.59" />
    <circle class="cls-29" cx="721.59" cy="982.67" r="5.29" />
    <rect class="cls-22" x="526.05" y="1235.38" width="555.17" height="6.55" />
    <circle class="cls-29" cx="526.52" cy="1238.66" r="3.28" />
    <circle class="cls-29" cx="812.55" cy="975.64" r="12.33" />
    <rect class="cls-28" x="854.87" y="752.27" width="579.27" height="15.7" />
    <circle class="cls-29" cx="855.99" cy="760.12" r="7.85" />
    <rect class="cls-29" x="931.35" y="764.04" width="448.79" height="12.16" />
    <circle class="cls-30" cx="932.22" cy="770.12" r="6.08" />
    <rect class="cls-26" x="856.99" y="545.61" width="594.13" height="9.02" />
    <circle class="cls-27" cx="857.64" cy="550.12" r="4.51" />
    <rect class="cls-26" x="905.63" y="515.63" width="516.5" height="21" />
    <rect class="cls-22" x="828.99" y="527.61" width="594.13" height="9.02" />
    <circle class="cls-29" cx="829.64" cy="532.12" r="4.51" />
    <circle class="cls-29" cx="907.13" cy="526.13" r="10.5" />
    <path class="cls-34" d="M203.85,818.66H188.56a11.79,11.79,0,0,1,1.59-4.83,23,23,0,0,1,5-5.35,15.73,15.73,0,0,0,2.86-2.87,3.48,3.48,0,0,0,.63-1.86,2.32,2.32,0,0,0-.62-1.63,2.16,2.16,0,0,0-3.15,0,4.6,4.6,0,0,0-.83,2.46l-5.1-.47a10.08,10.08,0,0,1,1.1-3.81,5.3,5.3,0,0,1,2.26-2.1,9.14,9.14,0,0,1,4-.73,10.16,10.16,0,0,1,4.18.7,5.27,5.27,0,0,1,2.35,2.14,6.2,6.2,0,0,1,.86,3.23,7.27,7.27,0,0,1-1,3.63,14.36,14.36,0,0,1-3.57,3.81q-1.54,1.21-2.06,1.69t-1.22,1.26h8v4.71Z"
      transform="translate(465.14 405.06)" />
    <path class="cls-34" d="M206,808.16q0-5.93,1.88-8.31a6.87,6.87,0,0,1,5.73-2.37,7.65,7.65,0,0,1,3,.52,5.56,5.56,0,0,1,1.94,1.35,7.14,7.14,0,0,1,1.18,1.75,9.85,9.85,0,0,1,.69,2.14,22.53,22.53,0,0,1,.51,4.86q0,5.67-1.69,8.29T213.5,819a7.33,7.33,0,0,1-3.74-.84,6.44,6.44,0,0,1-2.34-2.46,10.07,10.07,0,0,1-1-3.15A24.29,24.29,0,0,1,206,808.16Zm5.05,0a15.89,15.89,0,0,0,.62,5.43,2,2,0,0,0,1.79,1.46,1.77,1.77,0,0,0,1.34-.62,4,4,0,0,0,.84-2,23.21,23.21,0,0,0,.27-4.16,16.34,16.34,0,0,0-.62-5.57,2,2,0,0,0-1.86-1.43,1.92,1.92,0,0,0-1.83,1.46A17.2,17.2,0,0,0,211.08,808.18Z"
      transform="translate(465.14 405.06)" />
    <path class="cls-34" d="M234.66,797.48v21.17H229.5V804.78a15.5,15.5,0,0,1-2.42,1.75,17.61,17.61,0,0,1-2.93,1.28v-4.74a11.89,11.89,0,0,0,4-2.29,9.28,9.28,0,0,0,2.25-3.29h4.21Z"
      transform="translate(465.14 405.06)" />
    <path class="cls-34" d="M243.26,807.47a5,5,0,0,1-1.75-1.62,5.25,5.25,0,0,1-.75-2.81,5.16,5.16,0,0,1,2.16-4.27,7.21,7.21,0,0,1,4.47-1.28q3.68,0,5.43,1.59a5.38,5.38,0,0,1,1.06,6.63,6.14,6.14,0,0,1-1.65,1.76,5.38,5.38,0,0,1,2.22,2.14,6,6,0,0,1,.73,3,6.82,6.82,0,0,1-.63,2.92,5.73,5.73,0,0,1-1.55,2.09,5.93,5.93,0,0,1-2.29,1.09,11.8,11.8,0,0,1-2.92.35,10.1,10.1,0,0,1-4.45-.78,5.28,5.28,0,0,1-2.34-2.3,7.16,7.16,0,0,1-.8-3.39,6,6,0,0,1,.75-3.1A4.89,4.89,0,0,1,243.26,807.47Zm2,4.87a3.37,3.37,0,0,0,.74,2.25,2.17,2.17,0,0,0,1.69.87,2.1,2.1,0,0,0,1.64-.89,3.85,3.85,0,0,0,0-4.51,2.16,2.16,0,0,0-1.69-.88A2.1,2.1,0,0,0,246,810,3.49,3.49,0,0,0,245.27,812.34Zm0.28-9a2.51,2.51,0,0,0,.59,1.74,2,2,0,0,0,1.58.66,1.82,1.82,0,0,0,1.44-.65,2.5,2.5,0,0,0,.56-1.69,2.57,2.57,0,0,0-.59-1.75,2,2,0,0,0-3,0A2.49,2.49,0,0,0,245.55,803.38Z"
      transform="translate(465.14 405.06)" />
    <path class="cls-34" d="M58.9,811.77l5.39-.38a5.07,5.07,0,0,0,.71,2.27,2.86,2.86,0,0,0,2.5,1.26,2.56,2.56,0,0,0,1.87-.65,2,2,0,0,0,.66-1.5,2,2,0,0,0-.63-1.45,6.76,6.76,0,0,0-2.9-1.21,11.63,11.63,0,0,1-5.32-2.53,5.4,5.4,0,0,1-1.6-4,6,6,0,0,1,.82-3,5.63,5.63,0,0,1,2.46-2.24,10.29,10.29,0,0,1,4.51-.82A8.39,8.39,0,0,1,72.74,799a6.68,6.68,0,0,1,2.2,4.72l-5.34.36a3.43,3.43,0,0,0-.89-2,2.65,2.65,0,0,0-1.88-.64,2.08,2.08,0,0,0-1.49.48,1.54,1.54,0,0,0-.5,1.16,1.22,1.22,0,0,0,.41.89,4.32,4.32,0,0,0,1.9.77,21.75,21.75,0,0,1,5.32,1.84,5.89,5.89,0,0,1,2.34,2.31,6.46,6.46,0,0,1,.73,3.08,7.26,7.26,0,0,1-1,3.69,6.36,6.36,0,0,1-2.73,2.56,9.87,9.87,0,0,1-4.42.87q-4.68,0-6.48-2A8.6,8.6,0,0,1,58.9,811.77Z"
      transform="translate(465.14 405.06)" />
    <path class="cls-34" d="M90.32,797.84H96v12.4a11.73,11.73,0,0,1-.51,3.48,7.72,7.72,0,0,1-1.59,2.87,6.33,6.33,0,0,1-2.27,1.72,10.18,10.18,0,0,1-4,.7,22.07,22.07,0,0,1-2.92-.21,7,7,0,0,1-2.65-.84,7.46,7.46,0,0,1-3.15-4.19,14,14,0,0,1-.53-3.52v-12.4h5.65v12.7a3.93,3.93,0,0,0,.83,2.66,3.26,3.26,0,0,0,4.6,0,3.92,3.92,0,0,0,.83-2.67v-12.7Z"
      transform="translate(465.14 405.06)" />
    <path class="cls-34" d="M99.66,797.84h7.45L110,810.51l2.85-12.67h7.45v20.82h-4.64V802.78l-3.58,15.88h-4.2l-3.57-15.87v15.88H99.66V797.84Z"
      transform="translate(465.14 405.06)" />
    <path class="cls-34" d="M123.84,797.84h7.45l2.87,12.67L137,797.84h7.45v20.82h-4.64V802.78l-3.58,15.88h-4.2l-3.57-15.87v15.88h-4.64V797.84Z"
      transform="translate(465.14 405.06)" />
    <path class="cls-34" d="M148.31,797.84H154v20.82h-5.68V797.84Z" transform="translate(465.14 405.06)" />
    <path class="cls-34" d="M156.76,797.84H174V803h-5.78v15.68h-5.67V803h-5.78v-5.14Z" transform="translate(465.14 405.06)"
    />
    <path class="cls-6" d="M704.66,331.76l-0.22-.2-26.2,28.37,0.58-.22c-2.74,9.44-11.08,29.15-36.18,65.93-27.64,40.49-67.09,89-111.1,136.56C488,609.21,443.2,652,405.26,682.57c-35.09,28.32-54.42,38.44-63.84,42.06l-26,28.19c3.39,3.09,9.32,6.7,18.51,6.7,10.6,0,23.57-4.72,40.81-14.86,14.58-8.57,31.81-20.86,51.21-36.51,39.14-31.58,85.23-75.49,129.76-123.63C605.3,530.88,648.49,477,677.29,432.94c14.41-22.06,24.58-40.74,30.23-55.53C710.53,369.55,719.67,345.65,704.66,331.76Z"
      transform="translate(465.14 405.06)" />
    <path class="cls-35" d="M678.24,359.93l0.57-.24h0v0a115.83,115.83,0,0,1-5.39,14.78c-1.07,2.4-2.23,4.75-3.35,7.13s-2.4,4.67-3.6,7-2.48,4.63-3.78,6.91-2.56,4.59-3.89,6.85l-4.07,6.74c-1.35,2.25-2.7,4.51-4.14,6.7l-4.27,6.61-2.14,3.31c-0.73,1.13-1.47,2.18-2.21,3.27l-8.86,13c-6.12,8.53-12.24,17.09-18.63,25.41S601.67,484,595.18,492.27l-10,12.19-5,6.09-5.08,6-10.21,12-10.4,11.82-5.21,5.9L544,552.09l-10.58,11.66L522.67,575.2l-5.39,5.72-5.48,5.65-11,11.3L489.66,609l-5.59,5.54L478.38,620,467,630.84c-7.7,7.13-15.35,14.31-23.27,21.21-3.93,3.48-7.83,7-11.85,10.36s-8,6.83-12,10.17l-12.26,9.89c-4.13,3.28-8.3,6.41-12.46,9.61s-8.52,6.16-12.77,9.24l-6.53,4.41-3.26,2.2-3.33,2.1c-4.41,2.84-8.95,5.5-13.54,8l-3.5,1.81-1.75.9-1.79.82c-1.2.54-2.38,1.11-3.59,1.61l-3.66,1.44L345,723c1.18-.56,2.33-1.19,3.5-1.78l1.74-.9,1.7-1,3.4-2c2.26-1.31,4.45-2.75,6.67-4.12,1.12-.68,2.2-1.41,3.28-2.15l3.24-2.2,3.24-2.2,3.17-2.31,6.34-4.62c4.12-3.22,8.29-6.35,12.37-9.63s8.19-6.57,12.17-9.91l12-10.16c7.83-6.93,15.75-13.77,23.38-20.92s15.26-14.31,22.87-21.48l11.22-11,5.6-5.49,5.51-5.58,11.05-11.14,10.89-11.28,5.44-5.65,5.37-5.74,10.73-11.46,10.59-11.58,5.29-5.79,5.21-5.87,10.41-11.74,10.25-11.88,5.13-5.93,5-6,10.07-12,9.87-12.2c3.33-4,6.54-8.17,9.76-12.28s6.51-8.2,9.6-12.4l9.43-12.52,9.19-12.75c0.75-1.06,1.56-2.13,2.27-3.18l2.21-3.24,4.43-6.47c1.51-2.14,2.93-4.33,4.35-6.52l4.29-6.57c1.41-2.2,2.74-4.45,4.11-6.68s2.74-4.45,4-6.74,2.62-4.53,3.83-6.84,2.43-4.63,3.58-7a115.53,115.53,0,0,0,6.06-14.46l0,0Z"
      transform="translate(465.14 405.06)" />
    <ellipse class="cls-5" cx="-25" cy="30.21" rx="546.12" ry="108.6" transform="translate(434.76 396.43) rotate(-47.5)"
    />
    <path class="cls-6" d="M-394.71,418c5.64-19.43,22.8-60,74.49-135.73,56.88-83.35,138.11-183.17,228.7-281.1C-2-95.63,90.31-183.62,168.41-246.64,240-304.4,279.69-325.39,299.33-333l53.93-58.39c-7-6.32-19.16-13.65-37.93-13.65-21.82,0-48.52,9.72-84,30.6-30,17.65-65.48,42.94-105.41,75.16-80.57,65-175.43,155.4-267.11,254.49-102.17,110.44-191.09,221.25-250.37,312-29.65,45.4-50.59,83.86-62.23,114.31-6.18,16.17-25,65.38,5.9,94l0.29,0.26,53.6-58Z"
      transform="translate(465.14 405.06)" />
    <path class="cls-6" d="M353.72-391l-0.46-.41L299.33-333l1.19-.46c-5.65,19.44-22.81,60-74.48,135.71C169.15-114.42,87.92-14.59-2.67,83.33-92.19,180.1-184.5,268.09-262.6,331.11c-72.24,58.29-112,79.13-131.42,86.59l-53.6,58c7,6.36,19.18,13.8,38.1,13.8,21.82,0,48.51-9.72,84-30.6,30-17.65,65.48-42.94,105.41-75.16,80.57-65,175.43-155.39,267.1-254.49C149.18,18.85,238.09-92,297.38-182.74,327-228.14,348-266.61,359.61-297,365.79-313.22,384.61-362.43,353.72-391Z"
      transform="translate(465.14 405.06)" />
    <path class="cls-35" d="M299.33-333l1.18-.49,0.06,0,0,0.06-2.32,7.76c-0.85,2.56-1.81,5.08-2.71,7.63-0.46,1.27-.91,2.55-1.39,3.81l-1.56,3.74-3.12,7.49c-0.5,1.26-1.09,2.47-1.67,3.69L286-295.7l-3.46,7.33c-1.11,2.47-2.43,4.83-3.65,7.24l-3.73,7.2c-1.26,2.39-2.45,4.83-3.78,7.18l-4,7.06c-2.68,4.69-5.28,9.44-8,14.09L251-231.75l-4.2,6.94c-1.38,2.33-2.9,4.56-4.34,6.85l-8.8,13.61-4.4,6.81c-1.5,2.34-3,4.48-4.55,6.73l-18.24,26.72c-12.61,17.56-25.2,35.18-38.34,52.31-12.86,17.37-26.41,34.2-39.78,51.17L107.83-35.52,97.56-23,87.09-10.63Q76.63,1.75,66.08,14L44.68,38.37,34,50.52l-10.89,12L1.3,86.51l-22.21,23.57L-32,121.86-43.3,133.49l-22.6,23.25q-11.45,11.47-23,22.87L-100.37,191l-11.7,11.21c-7.81,7.46-15.57,15-23.42,22.4l-23.78,22c-7.89,7.38-16.06,14.45-24.13,21.64s-16.11,14.39-24.4,21.33-16.41,14.06-24.75,20.93l-25.23,20.35-3.18,2.56-3.21,2.46-6.42,4.92-12.84,9.84-3.22,2.45-3.29,2.38-6.58,4.75-13.16,9.49-13.43,9.1-6.71,4.54-6.87,4.31-6.87,4.3-3.44,2.15c-1.15.71-2.34,1.36-3.5,2l-7,4c-2.36,1.32-4.64,2.76-7.07,4l-7.21,3.72-3.6,1.85-3.69,1.69c-2.47,1.1-4.89,2.29-7.39,3.32l-7.53,3,7.38-3.31c2.44-1.15,4.8-2.45,7.2-3.66l3.59-1.85,3.5-2,7-4c2.36-1.3,4.59-2.81,6.88-4.22l6.83-4.3c1.13-.72,2.29-1.41,3.4-2.17l3.34-2.27,6.67-4.55,6.66-4.55L-325,376l13.06-9.48,12.77-9.85,6.38-4.92,3.19-2.46,3.14-2.55,12.58-10.18,6.29-5.08,3.15-2.54,3.05-2.59,24.61-20.91c16.12-14.27,32.41-28.34,48.14-43.06,16-14.46,31.41-29.46,47.08-44.22,7.74-7.48,15.39-15.06,23.09-22.58L-107,184.3l11.35-11.49,22.75-22.93,22.41-23.23L-39.28,115l11.05-11.81L-6.15,79.62l21.8-23.84,10.9-11.92L37.27,31.79,58.7,7.62,79.79-16.85,90.35-29.06l10.38-12.37,20.72-24.78,20.31-25.11,5.1-6.26,2.55-3.13,2.49-3.18,10-12.71,10-12.71c1.65-2.12,3.34-4.22,5-6.37l4.84-6.45L201-167.91l18.91-26.25c1.55-2.18,3.21-4.38,4.67-6.55l4.55-6.66,9.12-13.32c1.51-2.23,3.09-4.41,4.54-6.68l4.4-6.76,8.8-13.53c2.89-4.54,5.62-9.17,8.44-13.75l4.2-6.89c1.42-2.29,2.68-4.66,4-7l4-7c1.31-2.35,2.71-4.65,3.91-7.06l3.73-7.16,1.87-3.58c0.62-1.19,1.26-2.38,1.8-3.61l3.45-7.3,1.73-3.65c0.54-1.23,1-2.48,1.56-3.72,1-2.49,2.1-5,3.06-7.48l2.68-7.63,0,0Z"
      transform="translate(465.14 405.06)" />
    <path class="cls-36" d="M316,793h11.36v9.54h-7.61v15.22H316V793Zm3.75,2.79v1h3.86v-1h-3.86Zm0,4.29h3.86V799h-3.86v1.07Zm1.61,3.54h13.4v3H332.9v1.82h2.68v3.11H332.9v2.9h2a1.33,1.33,0,0,0,1.5-1.5v-10.4h-7.5V793h11.26v20.58q0.11,3.86-3.65,4-1.29.11-3.64,0.11a3.53,3.53,0,0,0-.21-0.86,7.72,7.72,0,0,0-.21-0.86h-3.22v-4.4h-2.68q0,2.57-3,5a5.2,5.2,0,0,1-.75-0.54,9.07,9.07,0,0,0-2.47-1.29q2.36-1.82,2.68-3.22h-2.47v-3.11h2.68v-1.82h-1.93v-3Zm5.47,3v1.82h2.46v-1.82h-2.46Zm5.79-10.83v1h3.86v-1h-3.86Zm0,3.22v1.07h3.86V799h-3.86Z"
      transform="translate(465.14 405.06)" />
    <path class="cls-36" d="M345.66,799.52q0.54,0.64,1.39,1.82l1.93,2.57-3.54,2.36q-0.86-1.39-2.79-4.18,0.11,0.22-.32-0.43Zm-1,7.61,3.75,1c-0.07.43-.21,1-0.43,1.82q-1,4.82-1.5,7.61l-3.75-1Q343.51,813.67,344.69,807.13Zm20.48,3.11q0.43,0.54,1.07,1.39,1.71,2,2.47,3.11l-2.9,1.93q-0.54-.86-1.71-2.36l-1.39-1.93v2.36q0,2.79-2.68,2.89-1.72,0-3.22.11-0.11-.54-0.43-1.93a7.11,7.11,0,0,0-.21-1,14.58,14.58,0,0,0-1.29,1.61,2.58,2.58,0,0,1-.43.64,24.22,24.22,0,0,0-2.57-2.25,10.23,10.23,0,0,1-.54,1.39l-0.64,1.93-3.43-3q2.25-4.07,2-12.33v-6L346.09,799a4,4,0,0,1-.54-0.75q-1.72-2.47-2.68-3.75l3.32-2.14q1.61,1.93,3.11,3.86v-3h19.08v3.54h-6.33a16.16,16.16,0,0,1-.54,1.72h5.9V810h-4.72v1.82Zm-10.94-11.79h3.22v-0.21a8.21,8.21,0,0,1,.43-1.5h-4.61v5.9q0.11,8.15-1.39,12.12a27.24,27.24,0,0,0,3.65-4.61l3,1.61q-1,1.5-1.93,2.79H358a0.9,0.9,0,0,0,1-1.07V810h-4.72V798.45Zm3.75,3.22v1.29h5.68v-1.29H358Zm5.68,5.15v-1.39H358v1.39h5.68Z"
      transform="translate(465.14 405.06)" />
    <path class="cls-36" d="M383.41,802.9a18.4,18.4,0,0,0,6.86-8.26l4.18,1.71a26.53,26.53,0,0,1-8.15,10.4q-0.54-.75-1.93-2.57Zm18,2q1.93,2.25,6.11,7.72,1.07,1.39,1.61,2l-3.86,2.47a4.08,4.08,0,0,1-.54-0.75,13.09,13.09,0,0,0-.86-1.39q-7.29.32-17.26,1.18l-1.18-3.86,2-.11A104.58,104.58,0,0,0,395.31,800l4.4,2.14q-1.18,1.61-4.72,6.65-1.5,2.15-2.14,3.11l8.47-.43-3.11-4.4Zm9.22-3.65q-0.32.64-1.18,2t-1.29,2.14a22.24,22.24,0,0,1-9.33-10.72H392v-3.32h10.08A19.54,19.54,0,0,0,410.64,801.29Z"
      transform="translate(465.14 405.06)" />
    <path class="cls-36" d="M424.47,809.87q0,2,.11,4-1.18.21-3.43,0.86-5.14,1.5-7.93,2.36l-1.39-3.54a6,6,0,0,1,1.72-.43v-20.8h22.52v9.86h-7.4l0.21,2.14h8.58v3.86h-7.72a14.42,14.42,0,0,0,1.29,3,1.76,1.76,0,0,0,1.39,1.07,1.17,1.17,0,0,0,1-1.07,16.13,16.13,0,0,0,.43-2.57,28.37,28.37,0,0,0,4,1.5,32.19,32.19,0,0,1-1.07,4.07,3.87,3.87,0,0,1-3.86,2.68,5.87,5.87,0,0,1-5.47-3,17.74,17.74,0,0,1-2.25-5.68H418v3.65q1.5-.43,4.72-1.39ZM418,796.15v2.14h13.62v-2.14H418Zm6.33,8.15-0.21-2.14H418v2.14h6.33Z"
      transform="translate(465.14 405.06)" />
    <path class="cls-36" d="M451.61,811.22h10.72v-4h-8.79v-4.07h8.79v-3.65h-5.15q-0.54,1.07-1.72,3.22c0.07-.14,0,0-0.21.32q-0.86-.53-4.07-2.14a27.85,27.85,0,0,0,4.07-9.44l4.5,0.75q-0.43,1.61-1,3.11h3.54v-4.93h4.61v4.93h8.47v4.18h-8.47v3.65h7.4v4.07h-7.4v4h9.54v4H451.61v-4Z"
      transform="translate(465.14 405.06)" />
    <path class="cls-36" d="M478,813.69a26.13,26.13,0,0,0,2.14-4.61l3.75,1.18q-0.64,1.72-2.25,5Zm10.62-22.3q0.64,0.64,1.71,1.93l2,2.36v-5.25h4v2q3.43-1.18,5.36-1.93l1.82,2.36L500.82,794a21.84,21.84,0,0,0,2.14.54q-0.32,0,.54.21a12.87,12.87,0,0,1-.54,2.68q-0.64,1.93-3.54,1.93h-3.54q-3.54,0-3.54-3.11l-2.57,1.39h1.39v7.93q0.11,2.89-2.68,3.11-1.61.11-3.54,0.11a11.36,11.36,0,0,0-.64-2.47h2.25q1,0,1-.64H483v3h-3.54v-11h10.08a11.46,11.46,0,0,0-.64-1q-5.15.22-10.18,0.54l-0.54-3.11a12.11,12.11,0,0,0,1.72.11q1.93-2.36,3.11-4.07l4.18,1-3,3h2.57l-1-1.29ZM483,800v0.86h4.61V800H483Zm0,2.79v0.86h4.61v-0.86H483Zm11.47,8.79q0.21-.86.43-1.82,1.93,0.75,3.75,1.5a10.11,10.11,0,0,0-.54-1.29l3.75-1.07q0.21,0.43.54,1.18a23.74,23.74,0,0,0,1.72,3.43l-3.86,1.39a18.61,18.61,0,0,0-1.18-2.79l-0.32-.64a5.56,5.56,0,0,1-.54,1.5,3.54,3.54,0,0,1-.21.64q-0.64,2.25-4.18,2.14H488q-4,.11-3.86-3.32v-3h4.07v1.93a1.33,1.33,0,0,0,1.5,1.5h3A1.54,1.54,0,0,0,494.49,811.54ZM489,809.29l2.79-1.82a35.85,35.85,0,0,0,2.46,2.89l-3,2q-0.54-.75-1.5-2.14A12.13,12.13,0,0,1,489,809.29Zm12.54-9.86,1.72,2.47a20,20,0,0,1-2.9,1.07,9.94,9.94,0,0,0,1.72.54c0.71,0.21,1.21.36,1.5,0.43a13.58,13.58,0,0,1-.64,2.68q-0.43,2-3.54,2h-3.54q-3.65.11-3.54-3.43v-5.58h4v1.72q1.5-.54,4-1.5A12.91,12.91,0,0,1,501.57,799.43Zm-1.82,5.36a10.49,10.49,0,0,0,.32-1.72q-1.82.54-3.75,1.18v0.43q-0.11,1,1.07,1h1.18A1,1,0,0,0,499.75,804.79Zm0.11-9.22a1.51,1.51,0,0,0,.11-0.64,4.6,4.6,0,0,0,.11-0.75l-2,.64a17.3,17.3,0,0,0-1.72.54,1,1,0,0,0,1.18,1.07h1.18A1.08,1.08,0,0,0,499.86,795.57Z"
      transform="translate(465.14 405.06)" />
    <path class="cls-36" d="M511.33,796l1.39,0.86,1.72-1.29q-3.65.22-7.18,0.21-0.22-.75-0.54-2.25l-0.32-1.61q14.47-.21,23.37-0.75l1,3.65q-4.72.32-9.76,0.54-0.54.43-1.71,1.18-2.36,1.72-3.43,2.36a15,15,0,0,0,1.93,1.29q5.15-3,8.15-5L529,798q-5.79,3.22-11.47,6.22,3.64-.11,6.33-0.11l-1.39-1.71,3-1.72q1.39,1.39,4.5,4.72,1,1.07,1.39,1.5l-3.11,2.36-1.61-1.93a28.37,28.37,0,0,1-2.9.11q-1.93.11-2.89,0.11v8.58h-4.61v-8.47l-3.75.21,2.47,2.68q-2.68,2-7.29,5a4.81,4.81,0,0,0-.43-0.64,27.91,27.91,0,0,0-2-2.57,78.52,78.52,0,0,0,6.75-4.5q-2.79.22-4.18,0.21L507,804.36q1.61,0,3.22-.11,1.61-.86,3.75-1.93-2.15-1.71-5.15-3.86Zm13.29,11.79q3.43,2.15,7,4.5l-2.68,3.22q-3.22-2.36-7-4.72Z"
      transform="translate(465.14 405.06)" />
  </g>
</svg>